<svg width="85" height="95" viewBox="0 0 85 95" fill="none" xmlns="http://www.w3.org/2000/svg">
<path d="M49.4039 92.7057C38.0514 92.7057 28.8736 86.9665 28.4454 82.8652C28.7212 60.1827 25.009 73.6163 49.4039 75.0302" stroke="#003594" stroke-width="3"/>
<path d="M48.3432 92.7067C59.6957 92.7067 68.8735 86.9675 69.3018 82.8662C69.0259 60.1837 72.7382 73.6173 48.3432 75.0311" stroke="#003594" stroke-width="3"/>
<path d="M48.3433 19.8831C55.2189 19.8831 60.7774 15.2777 61.0368 11.9866C60.8697 -6.21494 63.118 4.60805 48.3433 5.74262" stroke="#003594" stroke-width="3" stroke-linecap="round"/>
<path d="M48.3432 19.8825C41.4676 19.8825 35.9091 15.2771 35.6497 11.986C35.8167 -6.21555 33.5684 4.56423 48.3432 5.6988" stroke="#003594" stroke-width="3" stroke-linecap="round"/>
<path d="M69.026 70.0809L64.7883 65.8438C63.4083 64.4639 62.5142 62.6729 62.2407 60.7406L57.3588 26.2457L56.2982 18.4685" stroke="#003594" stroke-width="3"/>
<path d="M28.7211 70.0809L32.9588 65.8438C34.3388 64.4639 35.2329 62.6729 35.5064 60.7406L40.3883 26.2457L41.449 18.4685" stroke="#003594" stroke-width="3"/>
<path d="M48.3433 86.3427C55.4408 86.3427 62.4314 84.3743 68.4957 80.6865" stroke="#003594" stroke-width="3"/>
<path d="M48.3433 86.3427C41.6312 86.3427 35.0603 84.4152 29.4119 80.7895L29.2515 80.6865" stroke="#003594" stroke-width="3"/>
<path d="M65.6961 29.0144C66.3298 29.4331 67.1841 29.4773 67.8968 29.1289C68.3389 29.7549 69.1132 30.1006 69.8915 30.013C70.086 30.7699 70.6827 31.3749 71.4332 31.56C71.3552 32.3543 71.7021 33.1427 72.3336 33.5801C71.9942 34.3139 72.056 35.1883 72.4912 35.8256C71.9315 36.4113 71.701 37.2721 71.8877 38.0333C71.1762 38.4006 70.6743 39.1433 70.5881 39.9349C69.8112 40.0413 69.0985 40.5737 68.7512 41.2981C68.0026 41.1323 67.169 41.3863 66.6047 41.9542C65.971 41.536 65.1165 41.4921 64.4041 41.8406C63.9618 41.2147 63.1877 40.8676 62.4094 40.9555C62.2143 40.1986 61.6177 39.5931 60.8667 39.4087C60.9444 38.6142 60.5992 37.8255 59.9673 37.3885C60.3065 36.6543 60.2455 35.7802 59.8096 35.143C60.3696 34.5569 60.5996 33.6969 60.4122 32.9353C61.1246 32.5681 61.6268 31.8261 61.7127 31.0337C62.4899 30.9275 63.2022 30.396 63.5497 29.6714C64.2985 29.8377 65.1316 29.5825 65.6961 29.0144Z" stroke="#003594" stroke-width="3"/>
<path d="M66.424 31.6741C68.641 31.6741 70.4562 33.4934 70.4562 35.759C70.456 38.0245 68.6409 39.843 66.424 39.843C64.2069 39.843 62.3919 38.0246 62.3917 35.759C62.3917 33.4933 64.2068 31.6741 66.424 31.6741Z" stroke="#003594" stroke-width="2"/>
<path d="M29.591 49.1763C30.4827 50.4766 32.4791 50.578 33.6272 49.385C34.0064 50.944 35.8142 51.7562 37.2842 51.0002C37.1017 52.6291 38.4902 54.0491 40.1095 53.8296C39.3718 55.3379 40.2074 57.1772 41.7776 57.5257C40.5835 58.7171 40.7292 60.7777 42.0684 61.6531C40.5732 62.3834 40.0082 64.3988 40.9429 65.6988C39.3216 65.8837 38.1555 67.6221 38.5604 69.1771C37.0114 68.7985 35.3483 70.0443 35.1918 71.669C33.8978 70.7818 31.9501 71.3761 31.2548 72.8738C30.363 71.5739 28.3655 71.4715 27.2175 72.6642C26.8375 71.1062 25.0301 70.293 23.5606 71.049C23.7422 69.4204 22.3546 68.0004 20.7353 68.2206C21.4733 66.7115 20.6378 64.8708 19.0662 64.5236C20.261 63.332 20.1174 61.2712 18.7773 60.396C20.2725 59.6653 20.8374 57.6512 19.902 56.3514C21.5243 56.167 22.6906 54.4278 22.2843 52.8721C23.8343 53.2519 25.4972 52.0061 25.6529 50.3802C26.9471 51.269 28.8957 50.6749 29.591 49.1763Z" stroke="#003594" stroke-width="3"/>
<path d="M30.1929 55.0125C33.5028 55.0126 36.2572 57.7352 36.2573 61.1814C36.2573 64.6278 33.5029 67.3512 30.1929 67.3513C26.8828 67.3513 24.1284 64.6279 24.1284 61.1814C24.1286 57.7351 26.8829 55.0125 30.1929 55.0125Z" stroke="#003594" stroke-width="8"/>
<path d="M56.8285 2.91431V12.1056" stroke="#003594" stroke-width="1.5" stroke-linecap="round"/>
<path d="M48.5554 5.74268V14.9339" stroke="#003594" stroke-width="1.5" stroke-linecap="round"/>
<path d="M39.8581 2.91431V12.1056" stroke="#003594" stroke-width="1.5" stroke-linecap="round"/>
</svg>
