<svg width="90" height="113" viewBox="0 0 90 113" fill="none" xmlns="http://www.w3.org/2000/svg">
<path d="M44.5344 2.9999C45.3021 1.80842 42.2975 3.26209 38.2356 5.39908C31.0133 9.1987 24.8466 14.8269 20.4848 21.7241C17.6014 26.2834 15.5903 31.3387 14.5538 36.6326L14.3878 37.4805C13.8139 40.4116 12.9686 43.283 11.8627 46.0575L10.419 49.6798C8.59773 54.2492 6.3783 58.6495 3.78631 62.8301L2.04879 65.8193C1.15262 67.3611 1.37019 69.3076 2.58465 70.6135C3.35098 71.4375 4.42554 71.9056 5.55081 71.9056H6.03018C7.08348 71.9056 8.08932 72.3437 8.80663 73.115C9.34201 73.6907 9.68521 74.4185 9.78874 75.1978L10.2788 78.8867V83.7735V86.2257C10.2788 87.3695 10.5287 88.4996 11.011 89.5367C11.7958 91.2244 13.1545 92.5785 14.8449 93.3574L15.9185 93.8522C16.4861 94.1137 17.0747 94.3267 17.6782 94.489L21.9654 95.6414C23.8956 96.0565 25.3304 97.6804 25.5046 99.6471L26.2811 108.413C26.4108 109.877 27.6373 111 29.1072 111H65.4654C68.3615 111 70.7357 108.703 70.8319 105.809L71.2076 94.4974C71.2745 92.4835 71.6974 90.4974 72.4568 88.631L75.8535 80.2829C78.8461 72.9742 82.6942 70.215 82.5969 60.9999" stroke="#003594" stroke-width="3" stroke-linecap="round"/>
<path d="M22.6147 38.1583H32.9695C33.2009 38.1583 33.4252 38.0781 33.6041 37.9312L39.0589 33.4522C39.4811 33.1055 40.1034 33.1618 40.4565 33.5786L45.4124 39.4282C45.8545 39.9501 46.6784 39.884 47.0317 39.2983L54.1595 27.4804C54.473 26.9605 55.1737 26.8377 55.6454 27.2199L60.0307 30.7733C60.5015 31.1548 61.2007 31.0332 61.5151 30.5152L73.2565 11.1699" stroke="#003594" stroke-width="2" stroke-linecap="round"/>
<path d="M77.6431 4.8176C78.0043 4.53388 78.5126 4.89765 78.4087 5.36548L76.6862 13.0965C76.6094 13.4409 76.233 13.5915 75.9519 13.3906L71.7072 10.3528C71.4261 10.1516 71.4094 9.71951 71.6752 9.51029L77.6431 4.8176Z" fill="#003594" stroke="#003594"/>
<path d="M18.719 36.4058C20.1607 36.4058 21.6988 37.353 22.9534 39.3765C24.1939 41.3773 25.01 44.2361 25.01 47.4722C25.0099 50.7081 24.1938 53.5661 22.9534 55.5669C21.6987 57.5905 20.1608 58.5376 18.719 58.5376C17.2772 58.5376 15.7392 57.5904 14.4846 55.5669C13.2442 53.5661 12.428 50.708 12.428 47.4722C12.428 44.2361 13.2441 41.3773 14.4846 39.3765C15.7392 37.353 17.2773 36.4058 18.719 36.4058Z" stroke="#003594" stroke-width="3"/>
<path d="M44.689 2.79248V60.0378" stroke="#003594" stroke-width="3" stroke-linecap="round"/>
<path d="M87.54 53.0564H44.6893" stroke="#003594" stroke-width="3" stroke-linecap="round"/>
<path d="M87.54 39.0945H44.6893" stroke="#003594" stroke-width="3" stroke-linecap="round"/>
<path d="M87.54 25.1321L44.6893 25.1321" stroke="#003594" stroke-width="3" stroke-linecap="round"/>
<path d="M87.54 11.1699L44.6893 11.1699" stroke="#003594" stroke-width="3" stroke-linecap="round"/>
<path d="M57.6743 2.79248V60.0378" stroke="#003594" stroke-width="3" stroke-linecap="round"/>
<path d="M70.6594 2.79248V60.8925" stroke="#003594" stroke-width="3" stroke-linecap="round"/>
<path d="M82.5968 3V61.1" stroke="#003594" stroke-width="3" stroke-linecap="round"/>
</svg>
