<svg width="90" height="113" viewBox="0 0 90 113" fill="none" xmlns="http://www.w3.org/2000/svg">
<path d="M35.8059 33L1.68078 108.678C1.08392 110.002 2.05201 111.5 3.50399 111.5H86.3205C87.7704 111.5 88.7385 110.005 88.1456 108.682L54.1113 32.7258" stroke="#003594" stroke-width="3"/>
<path d="M35.8059 34.5L20.898 5.88616C19.8574 3.88894 21.3065 1.5 23.5585 1.5H31.7605H44.9082" stroke="#003594" stroke-width="3"/>
<path d="M54.0105 34L68.8745 5.90286C69.9314 3.90489 68.483 1.5 66.2227 1.5H58.0559H44.9082" stroke="#003594" stroke-width="3"/>
<path d="M67.4255 86.5L77.2532 95.7073" stroke="#003594" stroke-width="2.5" stroke-linecap="round"/>
<path d="M77.2732 96L67.6653 103.624" stroke="#003594" stroke-width="2.5" stroke-linecap="round"/>
<path d="M22.6394 86.5L12.8118 95.7073" stroke="#003594" stroke-width="2.5" stroke-linecap="round"/>
<path d="M12.7917 96L22.3997 103.624" stroke="#003594" stroke-width="2.5" stroke-linecap="round"/>
<path d="M27.8311 92C30.4173 92 32.5049 94.0716 32.5049 96.6152C32.5049 99.1588 30.4173 101.23 27.8311 101.23C25.245 101.23 23.1582 99.1587 23.1582 96.6152C23.1582 94.0717 25.245 92.0001 27.8311 92Z" fill="#003594" stroke="#003594"/>
<path d="M45.0243 92C47.6105 92 49.6981 94.0716 49.6981 96.6152C49.6981 99.1588 47.6105 101.23 45.0243 101.23C42.4382 101.23 40.3515 99.1587 40.3514 96.6152C40.3514 94.0717 42.4382 92.0001 45.0243 92Z" fill="#003594" stroke="#003594"/>
<path d="M62.2174 92C64.8036 92 66.8912 94.0716 66.8912 96.6152C66.8912 99.1588 64.8036 101.23 62.2174 101.23C59.6313 101.23 57.5446 99.1587 57.5446 96.6152C57.5446 94.0717 59.6313 92.0001 62.2174 92Z" fill="#003594" stroke="#003594"/>
</svg>
