<svg width="80" height="113" viewBox="0 0 80 113" fill="none" xmlns="http://www.w3.org/2000/svg">
<path d="M40 37.5974C61.3287 37.5974 78.4999 54.0934 78.5 74.2986C78.5 94.5039 61.3287 111 40 111C18.6713 111 1.5 94.5039 1.5 74.2986C1.50007 54.0934 18.6713 37.5974 40 37.5974Z" stroke="#003594" stroke-width="3"/>
<path d="M17.6403 13.0908H62.36C70.4402 13.091 76.9908 19.6414 76.9908 27.7217C76.9908 38.8153 65.1265 45.8732 55.3776 40.5791L50.1139 37.7207C43.8062 34.2953 36.1931 34.2953 29.8854 37.7207L24.6227 40.5791C14.8737 45.8733 3.00942 38.8154 3.0094 27.7217C3.0094 19.6413 9.55987 13.0908 17.6403 13.0908Z" stroke="#003594" stroke-width="3"/>
<path d="M39.2452 37.5391V110.338" stroke="#003594" stroke-linecap="round"/>
<path d="M1.5094 76.4611L25.3629 80.2901C34.8139 81.8072 44.4464 81.8069 53.8972 80.2892L77.7358 76.4611" stroke="#003594" stroke-linecap="round"/>
<path d="M1.5094 68.1646L25.3629 64.3356C34.8139 62.8185 44.4464 62.8188 53.8972 64.3365L77.7358 68.1646" stroke="#003594" stroke-linecap="round"/>
<path d="M7.54712 93.7596C27.8314 104.572 52.1685 104.572 72.4528 93.7596" stroke="#003594" stroke-linecap="round"/>
<path d="M7.54712 53.3961C27.8314 42.5837 52.1685 42.5837 72.4528 53.3961" stroke="#003594" stroke-linecap="round"/>
<path d="M4 84L6.07362 85.0386C27.9078 95.9746 53.6148 96.0013 75.4717 85.1105" stroke="#003594" stroke-linecap="round"/>
<path d="M4.52832 60.6039C26.3989 49.7063 52.109 49.6714 74.0091 60.5096L75 61" stroke="#003594" stroke-linecap="round"/>
<path d="M51.3207 38.9805C54.3063 47.091 55.5568 55.7379 54.9912 64.362L54.3396 74.2987L53.0748 83.3374C51.9101 91.6619 49.7003 99.8063 46.498 107.578L45.5 110" stroke="#003594" stroke-linecap="round"/>
<path d="M28.6793 38.9805C25.6937 47.091 24.4432 55.7379 25.0088 64.362L25.6604 74.2987L27.1404 84.8756C28.1632 92.1854 29.9921 99.3595 32.5938 106.267L34 110" stroke="#003594" stroke-linecap="round"/>
<path d="M64.9057 47.6299C67.8832 54.202 69.2828 61.3793 68.9924 68.5886L68.8807 71.3631C68.7466 74.6915 68.326 78.0021 67.6235 81.2583L66.9339 84.4548C65.5856 90.7044 63.5752 96.7925 60.9367 102.616L60.3774 103.851" stroke="#003594" stroke-linecap="round"/>
<path d="M15.0943 47.6299C12.1168 54.202 10.7172 61.3793 11.0076 68.5886L11.1193 71.3631C11.2534 74.6915 11.674 78.0021 12.3765 81.2583L13.0661 84.4548C14.4144 90.7044 16.4248 96.7925 19.0633 102.616L19.6226 103.851" stroke="#003594" stroke-linecap="round"/>
<path d="M5.5 19.5L9.69308 14.8941C17.4599 6.36273 28.4628 1.5 40 1.5" stroke="#003594" stroke-width="3" stroke-linecap="round"/>
<path d="M73 17.5L70.8589 15.0759C63.2347 6.44388 52.2718 1.5 40.7548 1.5" stroke="#003594" stroke-width="3" stroke-linecap="round"/>
</svg>
