<svg width="96" height="111" viewBox="0 0 96 111" fill="none" xmlns="http://www.w3.org/2000/svg">
<path d="M28.582 9.99519C33.7481 6.75681 40.1465 10.183 40.069 16.1466L39.0623 93.5776C39.0448 93.5359 39.0275 93.4941 39.0079 93.4534L37.7856 90.9111C36.4931 88.2233 33.4021 86.9851 30.48 87.9734C26.3714 89.0512 22.9274 92.0483 21.2549 96.0054L18.6545 102.158C18.5844 102.324 18.4853 102.478 18.3617 102.611C17.5514 103.48 16.153 103.128 15.9446 102.003L1.99485 26.6602L28.582 9.99519Z" stroke="#003594" stroke-width="3" stroke-linecap="round"/>
<path d="M51.8131 10.0111C46.6472 6.77552 40.249 10.2054 40.3258 16.1687L41.3231 93.5973C41.3406 93.5557 41.358 93.5138 41.3776 93.4732L42.6003 90.9302C43.8926 88.2427 46.9823 87.0034 49.9035 87.9884C54.0134 89.0633 57.4577 92.0585 59.1301 96.0155L61.73 102.167C61.8001 102.333 61.9001 102.486 62.0238 102.619C62.8339 103.488 64.2316 103.136 64.4401 102.01L78.3986 26.6616L51.8131 10.0111Z" stroke="#003594" stroke-width="3" stroke-linecap="round"/>
<path d="M39.1716 94.6639C39.1854 94.6887 39.2732 94.7787 39.41 94.8495C39.685 94.9919 39.9074 94.9 40.0963 94.9226C40.2652 94.9428 40.5832 94.9321 40.7743 94.9144C41.1031 94.8125 41.1744 94.7764 41.2205 94.7188C41.2485 94.6785 41.2858 94.6156 41.334 94.5386" stroke="#003594" stroke-width="2" stroke-linecap="round"/>
<path d="M84 74.5C87.2679 74.5 89.9204 76.8392 91.6709 79.9512C93.4478 83.1101 94.5 87.3729 94.5 92C94.5 96.6271 93.4478 100.89 91.6709 104.049C89.9204 107.161 87.2679 109.5 84 109.5C80.7321 109.5 78.0796 107.161 76.3291 104.049C74.5522 100.89 73.5 96.6271 73.5 92C73.5 87.3729 74.5522 83.1101 76.3291 79.9512C78.0796 76.8392 80.7321 74.5 84 74.5Z" stroke="#003594" stroke-width="3"/>
<path d="M84 79V87.6518" stroke="#003594" stroke-width="2" stroke-linecap="round"/>
<path d="M73.5879 53.4871L75.6007 53.0696C80.6693 52.0184 85.0111 62.7972 83.8556 73.5629" stroke="#003594" stroke-width="2" stroke-linecap="round"/>
<path d="M17.5 103L18.5019 102.717C32.8796 98.6536 48.1078 98.6978 62.4616 102.844L63 103" stroke="#003594" stroke-width="3" stroke-linecap="round"/>
<path d="M38.0161 92.7268C38.0246 92.7581 38.0569 92.8936 38.0862 93.0098C38.1377 93.2144 38.1313 93.3494 38.1569 93.6749C38.1668 93.801 38.1749 93.9587 38.1734 94.1284C38.172 94.2812 38.1252 94.4136 38.0976 94.4268C38.068 94.4411 38.0294 94.4366 37.996 94.4298C37.9329 94.4168 37.9246 94.3303 37.9072 94.2744C37.8718 94.161 37.7982 93.9712 37.7558 93.8654C37.6949 93.7135 37.6543 93.5958 37.6409 93.5309C37.634 93.4976 37.6288 93.4537 37.6195 93.4232C37.6003 93.3608 37.6187 93.6215 37.7762 94.0129C37.8598 94.2206 37.8751 94.3739 37.8987 94.4875C37.9598 94.7819 38.0223 94.8479 38.0639 94.9095C38.1025 94.9666 38.1927 95.0744 38.3075 95.2011C38.3858 95.2876 38.5399 95.3722 38.7934 95.5007C38.9333 95.5717 39.1089 95.6279 39.2559 95.6684C39.5155 95.7399 39.6522 95.7419 39.8137 95.7439C39.962 95.7457 40.2447 95.7499 40.3979 95.7499C40.5662 95.7499 40.662 95.721 40.8335 95.6879C41.0212 95.6517 41.1944 95.6496 41.3432 95.6019C41.521 95.5448 41.6745 95.438 41.7973 95.3504C41.9781 95.2213 42.0873 95.0335 42.1711 94.9192C42.2674 94.7879 42.3375 94.5901 42.3918 94.4624C42.4368 94.357 42.525 94.1724 42.5859 94.016C42.6469 93.8596 42.6801 93.7379 42.6973 93.6679C42.7146 93.5978 42.7149 93.5831 42.7153 93.5679" stroke="#003594" stroke-width="0.5" stroke-linecap="round"/>
</svg>
