<svg width="86" height="113" viewBox="0 0 86 113" fill="none" xmlns="http://www.w3.org/2000/svg">
<path d="M38.6715 6.5L34.6522 8.91768C28.232 12.7795 22.8644 18.1663 19.0255 24.6002C16.2561 29.2418 14.3355 34.3395 13.3537 39.6545L13.2581 40.172C12.7384 42.9852 11.9706 45.7467 10.9637 48.4244L9.63348 51.9618C7.9905 56.3309 5.97976 60.5527 3.6229 64.5818L1.97812 67.5811C1.19366 69.0115 1.38771 70.7799 2.46371 72.0062C3.20048 72.8459 4.26337 73.3273 5.38046 73.3273H5.56403C6.58131 73.3273 7.54924 73.7657 8.22018 74.5304C8.68627 75.0616 8.98238 75.7203 9.07027 76.4215L9.52568 80.0546V84.7637V87.1965C9.52568 88.254 9.74504 89.3 10.1699 90.2685C10.8973 91.9264 12.1894 93.2725 13.8162 94.0671L14.6243 94.4618C15.1593 94.7231 15.7165 94.9366 16.2892 95.0998L20.1507 96.2C21.9082 96.6006 23.204 98.093 23.3541 99.8893L24.086 108.647C24.1971 109.977 25.3091 111 26.6437 111H59.6993C62.3309 111 64.487 108.91 64.5694 106.28L64.9241 94.9633C64.9821 93.11 65.3511 91.2797 66.0156 89.5487L69.1437 81.4L75.0465 61.8909" stroke="#003594" stroke-width="3" stroke-linecap="round"/>
<path d="M45.2687 1.5H77.671C81.2609 1.5 84.171 4.41015 84.171 8V55.2363C84.171 58.8262 81.2609 61.7363 77.671 61.7363H45.2687C41.6788 61.7363 38.7687 58.8262 38.7687 55.2363V8C38.7687 4.41015 41.6788 1.5 45.2687 1.5Z" stroke="#003594" stroke-width="3"/>
<path d="M56.1576 36.3274H72.6854" stroke="#003594" stroke-width="3" stroke-linecap="round"/>
<path d="M46.7131 26.9092H72.6854" stroke="#003594" stroke-width="3" stroke-linecap="round"/>
<path d="M51.4354 18.8364H75.0465" stroke="#003594" stroke-width="3" stroke-linecap="round"/>
<path d="M53.7965 45.7456H67.9632" stroke="#003594" stroke-width="3" stroke-linecap="round"/>
</svg>
