<svg width="102" height="114" viewBox="0 0 102 114" fill="none" xmlns="http://www.w3.org/2000/svg">
<path d="M6.04541 51C6.04541 51 6.21663 55.3352 6.28547 56.5151C6.35098 57.6381 6.59875 58.2972 6.69647 58.57C6.74814 58.7142 6.81755 58.8615 7.15649 59.3798C7.49543 59.8981 8.10525 60.7808 8.74932 61.5953C9.39338 62.4097 10.0532 63.1292 10.4347 63.5332C10.8915 64.0169 11.305 64.2411 12.0061 64.5529C12.3816 64.7199 12.8196 64.8097 14.1439 64.9088C15.4683 65.0079 17.6716 65.0894 18.92 65.1163C20.395 65.1482 20.6897 65.0533 20.8221 64.9672C20.9893 64.8586 21.2041 64.4278 21.5643 63.5528" stroke="#003594" stroke-width="3" stroke-linecap="round"/>
<path d="M21.9115 64.4329C21.9115 64.5146 21.927 64.9548 22.0211 65.9873C22.0793 66.6256 22.2412 67.4804 22.3848 68.181C22.5285 68.8815 22.67 69.398 22.87 69.9434C23.0699 70.4888 23.324 71.0474 23.6323 71.6363C23.9405 72.2251 24.2951 72.8271 24.701 73.3289C25.1069 73.8307 25.5534 74.2141 26.2489 74.6676C26.9445 75.1211 27.8757 75.6332 28.4117 75.9181C28.9477 76.2029 29.0603 76.245 29.4143 76.3123C29.7684 76.3796 30.3604 76.4708 31.3666 76.5171C32.3728 76.5633 33.7752 76.5619 34.585 76.5433C35.3947 76.5247 35.5693 76.489 36.2752 76.1105C36.9811 75.7321 38.2131 75.0119 39.1243 74.3671C40.0356 73.7222 40.5888 73.1745 40.9591 72.7862C41.7672 71.815 42 71.3963 42.2214 70.7272C42.395 70.1685 42.693 69.1647 43 68.1305" stroke="#003594" stroke-width="3" stroke-linecap="round"/>
<path d="M38 76C37.9445 75.2676 42.5715 78.2641 43.0098 79.3978C43.1002 79.6316 43.5261 79.5753 44.471 79.6992C45.4159 79.823 47.013 79.9803 47.993 80.0456C49.2864 80.1317 49.8178 79.9922 50.1845 79.8817C50.4603 79.7987 51.1652 79.6191 52.3638 79.3616C52.9691 79.2315 53.5497 78.9692 54.1455 78.6374C54.7413 78.3056 55.33 77.8781 55.7486 77.531C56.1673 77.1839 56.3982 76.9302 56.7617 76.4018C57.1252 75.8733 57.6143 75.0779 57.9848 74.3669C58.6455 73.0989 58.8837 72.244 58.985 71.677C59.1506 70.7501 59.1607 69.6962 59.1407 68.8681C59.1319 68.5006 59.0807 68.2431 58.9215 67.5899C58.7624 66.9366 58.4852 65.8962 58.3187 65.218C58.1521 64.5398 58.1044 64.2554 58.0344 63.8945" stroke="#003594" stroke-width="3" stroke-linecap="round"/>
<path d="M58.9869 68.3221C59.158 68.6524 60.163 70.1698 60.8471 71.0899C61.799 72.3703 62.6608 72.8425 63.2647 73.1812C63.6865 73.4178 64.5549 73.6518 66.2861 73.8768C67.348 74.0149 68.7914 74.0607 69.5773 74.1298C70.8448 74.2412 71.6949 74.2161 72.1917 74.0889C72.5665 73.9929 73.6603 73.7272 75.1966 73.1442C76.3583 72.7035 77.1514 71.8014 77.772 70.9804C78.6419 69.8295 79.3908 68.2298 79.9551 67.0845" stroke="#003594" stroke-width="3" stroke-linecap="round"/>
<path d="M80.412 67.5092C80.6652 67.7363 81.3982 68.3944 82.3324 68.9803C83.1279 69.4791 83.7854 69.5386 84.4495 69.6519C85.9629 69.9101 87.0677 70.1269 87.3277 70.1557C87.6629 70.1928 87.9899 70.1849 88.771 70.2073C89.4181 70.2258 90.5749 70.1997 91.5063 70.0961C92.4376 69.9924 93.1087 69.7968 93.8014 69.5029C95.2098 68.9052 96.1693 68.2045 96.8754 67.5194C97.9794 66.4481 98.8006 65.1962 99.2916 64.2911C99.7965 63.3604 100.083 62.3048 100.297 61.5075C100.421 61.0489 100.412 59.6149 100.346 57.4453C100.303 56.0339 99.7183 54.8295 99.1813 53.6315C98.5493 52.5279 97.9977 51.9046 97.4799 51.3452C97.3023 51.1977 97.065 51.0466 96.7177 50.8708" stroke="#003594" stroke-width="3" stroke-linecap="round"/>
<path d="M54.1625 78.8731C54.2368 79.0373 54.8189 79.9659 56.1243 81.7624C56.8326 82.7371 58.1781 84.2341 59.4607 85.5635C60.7433 86.8928 61.9607 87.9578 63.0949 88.818C64.2292 89.6782 65.2433 90.3013 66.4295 90.9002C67.6156 91.4992 68.9429 92.055 70.1834 92.4837C71.4239 92.9124 72.5373 93.1971 73.7628 93.3697C74.9882 93.5423 76.292 93.5941 77.3741 93.4839C79.2934 93.2885 80.2448 92.7558 80.5145 92.6307C80.826 92.4863 81.8939 91.8943 83.7327 90.5559C85.806 89.0468 86.9754 87.44 87.4731 86.9593C87.8016 86.6419 88.3087 85.3998 89.0409 83.6322C89.8472 81.6857 90.4054 79.6711 90.6422 78.7074C90.782 77.9862 90.9795 77.077 91.3171 74.3335C91.378 73.4786 91.3964 72.582 91.4153 71.6582" stroke="#003594" stroke-width="3" stroke-linecap="round"/>
<path d="M40.0001 75.0001C48 59 38.4796 77.0981 37.5001 77.0001C32.5 76.5 45.2233 81.8847 46.1135 82.7479C48.3616 84.9277 49.7656 86.5188 50.011 86.834C50.4223 87.3621 51.2636 88.5534 52.3004 90.2531C52.783 91.0442 53.1442 91.7245 54.119 94.0949C55.0938 96.4653 56.6629 100.514 57.5963 103.102C58.8719 106.638 59.1749 108.08 59.4686 108.746C60.1326 110.251 61.3846 111.365 62.3284 111.842C63.8004 112.586 65.5687 112.532 66.6788 112.462C67.2966 112.423 67.6207 111.949 67.9167 111.571C68.154 111.268 68.584 109.967 69.1346 108.17C69.3892 107.339 69.5323 105.919 69.7571 103.583C70.0642 100.389 69.9679 99.7816 69.9957 98.8723C70.0156 98.2244 70.1189 97.2669 70.29 95.3024C70.3442 94.3944 70.4018 93.8035 70.4388 93.4755C70.4619 93.2887 70.4935 93.0603 70.5261 92.825" stroke="#003594" stroke-width="3" stroke-linecap="round"/>
<path d="M5.69405 50.4232C5.65705 50.3744 5.53458 50.238 5.10059 49.6759C4.18005 48.4836 3.55019 47.4248 3.35801 47.0412C2.97547 46.2777 2.43885 45.1021 2.23041 44.4347C2.19653 44.3262 2.17707 44.1895 2.07566 43.4364C1.97425 42.6833 1.79983 41.3142 1.70458 40.5049C1.58516 39.4902 1.56132 39.1212 1.52021 38.5063C1.43818 37.2793 1.61455 35.985 1.89257 34.9471C2.19802 33.8068 2.56888 33.0584 2.75675 32.703C2.91227 32.4088 3.2512 31.8942 3.73664 31.1035C4.20204 30.3453 4.63834 29.975 4.86572 29.8063C5.07844 29.6486 5.53665 29.6548 6.22777 29.7334C7.63218 29.893 8.0722 30.6793 8.66505 31.6521C8.86656 32.0299 9.11179 32.5257 9.36378 32.9672C9.61577 33.4087 9.86708 33.7809 10.2438 34.2516" stroke="#003594" stroke-width="3" stroke-linecap="round"/>
<path d="M6.65442 29.5381C6.67586 28.7872 6.85087 27.1343 6.94809 26.287C7.06712 25.2497 6.9629 24.483 7.01101 23.8975C7.05245 23.3932 7.11999 22.467 7.25202 21.6326C7.38405 20.7983 7.57636 20.0835 8.00143 18.9235C8.4265 17.7635 9.0785 16.1799 9.53015 15.1596C10.1761 13.7003 10.6249 13.0716 10.9873 12.6011C11.1721 12.3612 11.3772 12.1447 11.7899 11.8075C12.2026 11.4702 12.8214 11.0255 13.7327 10.5279C14.6441 10.0304 15.8293 9.49362 16.5944 9.2036C18.0841 8.63891 18.6703 9.01239 19.0353 9.26631" stroke="#003594" stroke-width="3" stroke-linecap="round"/>
<path d="M19 9.5C18.9938 9.5 20.0713 8.10915 20.8385 7.32418C21.2992 6.85272 21.8376 6.13661 22.4061 5.55686C22.9745 4.97711 23.5395 4.53082 24.4455 3.99085C25.3514 3.45088 26.5814 2.83074 27.5176 2.42945C28.4539 2.02815 29.0593 1.86449 29.6128 1.74145C30.1662 1.61842 30.6494 1.54097 31.5431 1.51242C32.4367 1.48387 33.7262 1.50656 34.5925 1.55995C35.4588 1.61334 35.8627 1.69674 36.4484 1.91111C37.034 2.12547 37.7891 2.46828 38.7237 3.04172C39.6584 3.61515 40.5811 4.84549 41.3922 4.90758C58.6571 6.22923 70.3578 16.7602 54.5 16.5C54.2644 16.4961 53.3085 16.3618 53.5 16.5" stroke="#003594" stroke-width="3" stroke-linecap="round"/>
<path d="M37.8634 32C40.3589 32 42.045 33.7414 42.045 35.5C42.045 37.2586 40.3589 39 37.8634 39C35.368 38.9999 33.6818 37.2585 33.6818 35.5C33.6818 33.7415 35.368 32.0001 37.8634 32Z" fill="#003594" stroke="#003594" stroke-width="3"/>
<path d="M61.9146 48C64.5139 48 66.2837 49.8152 66.2837 51.6641C66.2837 53.513 64.5138 55.3281 61.9146 55.3281C59.3154 55.328 57.5454 53.5129 57.5454 51.6641C57.5454 49.8152 59.3153 48.0001 61.9146 48Z" fill="#003594" stroke="#003594" stroke-width="3"/>
<circle cx="59" cy="17" r="7" fill="#003594" stroke="#003594" stroke-width="3"/>
<path d="M36.0695 35.9268H82.5339C83.6899 35.9268 84.7893 35.4267 85.549 34.5554L99.3605 18.7134" stroke="#003594" stroke-width="3" stroke-linecap="round"/>
<path d="M65.1364 18.5L99.3605 18.7134" stroke="#003594" stroke-width="3" stroke-linecap="round"/>
<path d="M99.3606 18.7134L96.7507 49.6975" stroke="#003594" stroke-width="3" stroke-linecap="round"/>
<path d="M97.4032 51.4189H60.2115" stroke="#003594" stroke-width="3" stroke-linecap="round"/>
<path d="M37 30C40.3137 30 43 32.6863 43 36C43 39.3137 40.3137 42 37 42C33.6863 42 31 39.3137 31 36C31 32.6863 33.6863 30 37 30Z" fill="#003594" stroke="#003594"/>
<path d="M61.7274 49C63.396 49 64.6366 50.1775 64.6366 51.5C64.6366 52.8225 63.396 54 61.7274 54C60.0588 54 58.8182 52.8226 58.8182 51.5C58.8182 50.1774 60.0588 49 61.7274 49Z" fill="#003594" stroke="#003594"/>
</svg>
